<?xml version="1.0" encoding="UTF-8"?>
<!DOCTYPE svg PUBLIC "-//W3C//DTD SVG 1.1//EN" "http://www.w3.org/Graphics/SVG/1.1/DTD/svg11.dtd">
<!-- Creator: CorelDRAW 2019 (64 Bit) -->
<svg xmlns="http://www.w3.org/2000/svg" xml:space="preserve" width="93.7056mm" height="66.9712mm" version="1.1" style="shape-rendering:geometricPrecision; text-rendering:geometricPrecision; image-rendering:optimizeQuality; fill-rule:evenodd; clip-rule:evenodd"
viewBox="0 0 9370.56 6697.12"
 xmlns:xlink="http://www.w3.org/1999/xlink"
 xmlns:xodm="http://www.corel.com/coreldraw/odm/2003">
 <defs>
  <style type="text/css">
   <![CDATA[
    .fil0 {fill:black}
    .fil1 {fill:#00B1BD}
    .fil9 {fill:#00B7C1}
    .fil3 {fill:#00B8C1}
    .fil2 {fill:#02BAC5}
    .fil4 {fill:#03B5BE}
    .fil7 {fill:#232323}
    .fil8 {fill:#242424}
    .fil6 {fill:#252525}
    .fil14 {fill:#37A8AB}
    .fil11 {fill:#37ACB4}
    .fil10 {fill:#6A6A6A}
    .fil5 {fill:#757575}
    .fil12 {fill:#858585}
    .fil13 {fill:#8D8D8D}
    .fil15 {fill:#A4A4A4}
   ]]>
  </style>
 </defs>
 <g id="Camada_x0020_1">
  <metadata id="CorelCorpID_0Corel-Layer"/>
  <g id="_966260496">
   <path class="fil0" d="M707.34 5314.8c95.27,19.46 1211.58,8.41 1336.57,8.41l2690.18 -0.54c447.36,-2.81 897.9,6.05 1344.73,-2.22l2.06 -144.44 -2683.36 1.52c-286.05,0.15 -2602.33,24.49 -2675.62,-9.17 -100.85,-2.54 -257.8,-52.17 -320.73,-94 -285.85,-189.99 -238.68,-656.26 -238.68,-1013.35l0 -2504.31c0,-271.86 -15.07,-569.22 8.18,-826.6 22.6,-250.3 148.28,-411.79 340.4,-494.17 208.38,-89.36 473.22,-67.68 766.66,-67.68 1807.63,0 3615.27,0 5422.91,0 166.07,0 257.55,-16.34 364.57,52.61 206.13,132.81 197.3,320.99 197.3,645.87 36.77,0 75.62,1.6 111.82,1.15 55.61,-0.71 51.36,-4.67 50.87,-59.84 -2.82,-315.54 -30.65,-635.41 -366.86,-767.71 -124.33,-48.92 -249,-33.92 -417.29,-33.92 -1807.64,0 -3615.28,0 -5422.92,0 -366.96,0 -536.57,-16.06 -805.24,97.21 -194.02,81.78 -341.08,285.05 -387.44,515.26 -48.89,242.8 -24.71,593.41 -24.71,878.19l0 2717.27c0,354.49 -4.75,544.33 119.07,783.78 44.32,85.73 137.29,180.37 224.24,227.09 60.07,32.26 269.47,119.03 363.29,89.59z"/>
   <path class="fil0" d="M1737.44 4572.09c-222.09,0 -174.3,-272.57 -25.54,-272.57 197.67,0 173.03,272.57 25.54,272.57zm-332.02 -3747.95l629.98 0c6.28,26.95 14.84,59.63 -25.54,59.63l-578.9 0c-40.25,0 -31.98,-32.68 -25.54,-59.63zm-876.86 51.11l0 3569.07c0,166.17 142.13,272.58 314.99,272.58l1753.72 0c172.96,0 314.99,-107.12 314.99,-272.58l0 -477.01 -195.8 0 0 229.99 -1992.09 0 0 -3134.65 1992.09 0 0 306.65 195.8 0 0 -477.01c0,-144.09 -128.41,-272.58 -272.42,-272.58l-1838.85 0c-135.26,0 -272.43,127.31 -272.43,255.54z"/>
   <path class="fil0" d="M2420.12 6690.03c544.36,0 1088.77,4.57 1632.91,4.69 95.94,0.02 1182.12,18.02 1220.1,-5.35 49.77,-30.62 127.86,-189.31 129.71,-277.3 2.11,-100.75 -81,-251.85 -150.23,-263.4l-2832.13 8.15c-106.43,220.88 -149.69,310.27 -0.36,533.21z"/>
   <path class="fil1" d="M962.74 2553.31c0,42.58 0.29,85.27 -0.06,127.83 -0.53,62.91 -17.17,92.55 32.92,103.35 87.72,18.92 132.1,30.18 179.18,93.29 151.24,202.68 12.89,714.48 137.4,952.84 94.36,180.65 266.2,179.28 433.77,179.28 44.42,0 25.54,-90.18 25.54,-212.95 -330.85,0 -281.77,-120.04 -280.93,-562.2 0.27,-136.84 -19.06,-266.81 -64.99,-360.87 -38.03,-77.86 -136.48,-180.81 -224.46,-201.32 30.82,-42.09 141.17,-58.64 215.71,-193.03 147.43,-265.79 11.5,-791.4 128.29,-893.8 52.31,-45.86 154.33,-46.07 226.38,-46.07l0 -212.95c-174.29,-40.63 -342.52,18.64 -431.99,138.47 -142.12,190.35 -54.57,679.56 -107.85,880.18 -49.07,184.77 -178.58,188.81 -268.91,207.95z"/>
   <path class="fil0" d="M2971.6 5951.34l1719.92 4.89c63.24,0.01 168.46,-164.08 60.14,-294.59 -35.56,-42.84 -47.61,-30.94 -119.73,-30.94l-1601.24 1.72c-64.59,0.12 -66.32,13.32 -88.68,68.72 -45.49,112.64 -10.41,169.08 29.59,250.2z"/>
   <path class="fil2" d="M6794.29 2894.03c0,-129.02 29.28,-110.73 -153.24,-110.73l0 826.25c0,40 52.3,25.56 153.24,25.56 43.68,0 25.54,-134.45 25.54,-178.88 0,-74.4 -8.72,-358.48 9.2,-408.18 20.98,-58.19 51.07,-119.94 109.98,-119.94 50.03,0 30.32,117.62 34.67,169.75 12.8,153.37 7.9,376.81 7.9,537.25l170.26 0 0 -528.12c0,-136.31 161.75,-284.83 161.75,-76.67l0 604.79 139.55 -1.41c21.89,-2.79 30.72,2.17 30.72,-24.15l0 -638.85c0,-102.52 -60.96,-204.44 -161.75,-204.44 -169.47,0 -148.86,112.96 -204.32,127.77 -6.61,-79.41 -57.41,-127.77 -144.73,-127.77 -124.64,0 -117.19,82.63 -178.77,127.77z"/>
   <path class="fil2" d="M8158.03 3382.88c-48.44,30.62 -83.1,83.31 -143.59,102.06 -63.3,19.63 -154.38,1.29 -169.08,-64.98 -39.02,-175.87 176.05,-165.25 312.9,-164.55l-0.23 127.47zm-461.34 -403.67c56.34,-13.13 166.36,-68.14 289.45,-68.14 126.67,0 200.21,75.8 170.26,204.43 -144.92,0 -258.25,-6.56 -359.21,40.94 -284.1,133.64 -184.27,495.7 86.79,495.7 191.18,0 213.42,-71.13 297.96,-127.77 27.48,118.02 -47.59,110.74 178.78,110.74l0 -613.31c0,-160.27 -136.95,-255.54 -297.96,-255.54 -82.91,0 -357.41,-1.93 -366.56,84.7 -3.36,31.83 0.49,93.11 0.49,128.25z"/>
   <path class="fil3" d="M5947.36 3114.98c-16.8,-257.47 369.75,-275.59 346.68,0.84l-346.68 -0.84zm487.33 494.57c18.04,-48.56 13.73,-75.91 10.92,-134.12 -33,-0.24 -43.94,8.75 -68.37,13.06 -26.1,4.61 -57.99,8.74 -85.23,10.28 -82.33,-31.81 -349.04,51.86 -349.04,-238.46 141.88,0 283.78,-0.19 425.66,0 102.35,0.14 134.48,26.15 136.76,-76.29 6.48,-290.51 -170.57,-457.61 -448.62,-414.62 -390.61,60.39 -484.7,791.97 -4.74,875.83 79.3,13.86 345.51,3.44 382.66,-35.68z"/>
   <path class="fil4" d="M5474.7 3473.26c-10.8,16.9 -6.39,14.45 -19.15,23.29 -10.6,7.33 -11.39,7.05 -31.89,8.53l-9.32 -14.78c-272.95,0 -228.51,-31.95 -229.05,-425.91 -0.25,-177.2 0.52,-120.84 110.66,-120.48 27.26,0.09 37.9,-7.18 76.64,-7.78 173.55,-2.65 144.72,57.78 144.72,-152.83l-224.39 -4.25c-130.96,-7.34 -107.63,81.43 -107.63,-268.33 -293.81,68.49 -204.32,43.52 -204.32,264.06l-229.83 9.84 -0.02 152 221.33 2.96c29.34,66.73 -43.87,460.34 43.9,591.99 49.38,74.07 98.44,100.42 208.69,114.87 94.74,12.42 207.55,-0.1 292.27,-19.85l0 -161.85 -42.61 8.52z"/>
   <path class="fil4" d="M3882.77 3013.29c0,321.81 468.23,224.83 468.23,391.83 0,164.91 -395.71,68.89 -468.23,34.07l0 178.88c155.89,36.34 417.94,63.7 564.78,-22.64 109.13,-64.16 124.79,-132.24 124.79,-241.42 0,-257.07 -468.23,-205.05 -468.23,-349.24 0,-167.46 335.85,-59.63 400.12,-59.63l4.77 -153.15c-119.11,-26.39 -195.46,-25.73 -319.76,-25.73 -141.7,0 -306.47,105.42 -306.47,247.03z"/>
   <path class="fil4" d="M1992.84 2996.25c0,188.99 85.22,230.44 284.69,285.85 310.18,86.17 166.75,216.72 30.29,216.72 -115.69,0 -237.53,-22.44 -314.98,-59.63l0 178.88c210.08,48.97 689.57,86.48 689.57,-229.99 0,-320.64 -468.23,-214.81 -468.23,-391.83 0,-76.44 96.07,-89.19 153.24,-85.18l246.76 34.79 0.12 -154.04c-198.48,-31.91 -123.11,-28.96 -306.48,-25.56 -140.54,0 -314.98,95.24 -314.98,229.99z"/>
   <path class="fil2" d="M8616.11 3004.77c0,338.83 468.23,232.03 468.23,400.35 0,156.18 -376.23,78.24 -468.23,34.07l0 178.88c94.59,22.05 188.64,34.07 306.48,34.07 203.24,0 383.1,-78.92 383.1,-281.09 0,-276.53 -468.23,-219.12 -468.23,-366.28 0,-154.89 293.45,-74.11 399.89,-58.28l0.23 -154.67c-164.96,-21.84 -364.85,-65.87 -521.34,40.55 -43.35,29.48 -100.13,103.09 -100.13,172.4z"/>
   <path class="fil4" d="M2963.34 2851.44l0 93.7 238.18 -6.42c-11.76,95.35 -18.85,210.05 -4.68,309.43 9.96,69.82 4.87,151.14 4.87,225.11l-246.88 0c-40.66,0 -25.54,57.03 -25.54,161.85l723.62 0c0,-206.02 51.9,-161.85 -246.88,-161.85l0 -689.96c-154.94,-17.34 -282.86,-9.4 -442.69,-8.52l0 76.66z"/>
   <path class="fil5" d="M707.34 5314.8c16.95,19.46 -3.19,8.58 25.67,15.16 3.37,0.77 36.62,0.73 42.23,0.62 28.46,-0.54 56.87,-0.38 85.34,-0.38l5227.11 0 0 -161.84 -5365.79 0c73.29,33.66 2389.57,9.32 2675.62,9.17l2683.36 -1.52 -2.06 144.44c-446.83,8.27 -897.37,-0.59 -1344.73,2.22l-2690.18 0.54c-124.99,0 -1241.3,11.05 -1336.57,-8.41z"/>
   <path class="fil6" d="M6345.96 2042.23l-14.72 19.88 -6.94 -19.88c0.12,-32.18 -30.11,-99.95 -41.78,-135.32 -21.26,-64.48 -11.57,-86.15 -101.18,-86.15 -19.26,40.14 -26.2,202.27 -25.75,263.85 0.44,60.65 -6.26,86.42 -8.76,136.5 -4.44,89.01 -9.64,85.18 68.56,85.18l9.7 -383.28c9.61,15.51 73.24,195.08 75.43,221.43l59.59 0c7.66,-32.88 70.92,-207.57 85.14,-229.99l14.74 391.93c99.99,-0.17 61.29,17.83 62.12,-162.18 0.24,-52.54 -6.22,-169.96 -13.59,-224.92 -6.3,-47.06 8.71,-85.12 -22.89,-97.45 -46.89,-18.3 -67.61,9.76 -78.81,37.14 -16.47,40.25 -58.33,147.87 -60.86,183.26z"/>
   <path class="fil7" d="M3703.99 2306.29l59.59 0 0 -383.32c14.32,16.48 168.19,358.28 170.27,383.32l93.64 0 0 -459.98c0,-28.91 -14.94,-25.55 -42.56,-25.55 -35.68,0 -26.63,38.34 -25.95,76.26l0.41 307.05c-25.6,-36.86 -66.98,-147.62 -90.74,-198.83 -88.85,-191.53 -56.87,-184.48 -164.66,-184.48l0 485.53z"/>
   <path class="fil7" d="M6998.6 1846.31l0 459.98 68.11 0 0 -383.32c18.46,26.59 69.97,154.91 86.34,194.71 12.68,30.8 28.09,65.81 44.2,100.59 46.44,100.28 24.49,88.02 124.86,88.02l0 -459.98c0,-31.32 -18.18,-25.55 -59.6,-25.55l0 383.31c-17.82,-13.07 -116.94,-246.76 -141.87,-300.98 -30.55,-66.42 -12.03,-82.33 -96.5,-82.33 -19.61,0 -25.54,5.92 -25.54,25.55z"/>
   <path class="fil7" d="M8777.87 2246.66l-68.11 0 0 -366.28c134.75,0 212.83,-1.58 212.83,195.92 0,92.94 -53.19,170.36 -144.72,170.36zm-136.22 -400.35l0 459.98c222.81,0 349.05,-8.77 349.05,-272.58 0,-204.05 -158.57,-212.95 -323.51,-212.95 -19.61,0 -25.54,5.92 -25.54,25.55z"/>
   <path class="fil8" d="M2180.13 2246.66l-68.11 0 0 -366.28c134.75,0 212.83,-1.58 212.83,195.92 0,96.31 -48.78,170.36 -144.72,170.36zm-136.22 -400.35l0 459.98c180.87,0 349.05,6.31 349.05,-255.55 0,-220.01 -135.37,-229.98 -323.51,-229.98 -19.61,0 -25.54,5.92 -25.54,25.55z"/>
   <path class="fil8" d="M4572.34 2093.33c0,-78.87 8.47,-221.47 110.67,-221.47 171.86,0 152.54,383.32 8.51,383.32 -83.13,0 -119.18,-78.07 -119.18,-161.85zm-68.11 -68.14l0 85.18c0,275.11 374.58,279.9 374.58,-51.11 0,-99.7 -47.03,-238.5 -153.23,-238.5l-51.08 0c-102.21,0 -170.27,101.91 -170.27,204.43z"/>
   <path class="fil8" d="M7866.95 2059.26c0,-238.48 238.37,-264.63 238.37,8.52 0,247.15 -238.37,260.03 -238.37,-8.52zm-68.1 8.52c0,333.22 374.58,335.72 374.58,-25.55 0,-110.93 -54.94,-221.47 -161.75,-221.47 -64.84,0 -126.6,3.93 -175.29,80.15 -25.1,39.28 -37.54,105.05 -37.54,166.87z"/>
   <path class="fil6" d="M9348.25 2031.77l-190.46 -0.18c-12.06,-25.77 -13.31,-86.72 -10.54,-117.77 3.98,-44.76 1.02,-22.05 13.71,-34.06l204.32 0.67c0,-85.71 8.78,-56.3 -213.47,-60.31 -88.12,-1.59 -67.47,-13.74 -67.47,213.59 0,337.21 -65.16,272.58 280.94,272.58l0 -59.63 -204.32 0 0 -161.84 195.8 0 -8.51 -53.05z"/>
   <path class="fil8" d="M3576.29 2032.34l-190.32 -3.07c-13.92,-29.96 -7.71,-45.88 -8.03,-80.75 -0.76,-83.52 -0.83,-60.53 11.06,-70.64l204.32 2.68c0,-83.98 -19.91,-60.25 -110.65,-59.83 -64.12,0.3 -117.64,-3.73 -170.29,8.54l-0.11 383.43c-0.68,56.89 -15.71,88.76 33.3,94.45 286.55,33.31 316.89,-63.6 171.54,-60.9 -42.68,0.8 -85.41,0.41 -128.11,0.41l0 -161.84 195.81 0 -8.52 -52.48z"/>
   <path class="fil8" d="M2495.11 2306.29l272.43 0 0 -59.63 -204.32 0 0 -161.84 195.8 0 0 -59.63 -195.8 0 0 -144.81 204.32 0c0,-80.1 28.91,-59.62 -272.43,-59.62l0 485.53z"/>
   <path class="fil8" d="M6615.51 1846.31l0 459.98 272.42 0 0 -59.63 -204.31 0 0 -161.84 195.8 0 0 -59.63 -195.8 0 0 -144.81 204.31 0 0 -59.62 -246.88 0c-19.62,0 -25.54,5.92 -25.54,25.55z"/>
   <path class="fil8" d="M4248.84 2306.29c99.33,0 67.37,-0.38 150.97,-240.78 24.35,-70.02 104.21,-244.75 53.34,-244.75 -65.87,0 -76.86,102.95 -104,194.07 -14.75,49.56 -49.46,178.34 -74.77,214.79 -11.09,-47.61 -116.76,-408.86 -153.24,-408.86l-42.57 0c0,55.52 54.58,193.71 73.41,250.23 11.88,35.66 64.43,235.3 96.86,235.3z"/>
   <path class="fil7" d="M5466.23 2306.29l85.13 0c30,-62.57 96.15,-277.16 129.87,-372.62 26.13,-73.97 56.81,-112.91 -10.69,-112.91 -37.73,0 -72.73,159.72 -84.08,196.96 -23.07,75.68 -50.66,140.97 -69.15,220.42 -17.8,-25.62 -93.86,-281.43 -113.71,-346.2 -21.06,-68.7 -9.92,-71.18 -90.61,-71.18 1.43,64.31 128.49,379.25 153.24,485.53z"/>
   <path class="fil8" d="M2878.21 1940.01c0,171.8 246.88,124.13 246.88,238.51 0,113.79 -191.91,66.45 -255.08,57.59l-0.31 36.1c-0.25,55.61 332.01,84.15 332.01,-102.21 0,-87.02 -107.17,-121.73 -175.42,-148.17 -94.62,-36.66 -90.3,-108.71 -46.33,-133.26 53.99,-30.13 131.12,-7.67 187.67,0.49l0.03 -59.79 -144.73 -8.51c-68.5,0 -144.72,53.58 -144.72,119.25z"/>
   <path class="fil9" d="M3159.15 2553.31c0,168.24 263.91,167.24 263.91,0 0,-183.74 -263.91,-180.83 -263.91,0z"/>
   <path class="fil7" d="M5890.81 2246.66c-35.26,21.25 -63.95,-6.9 -105.14,17.04l1.51 25.57c2.29,0.93 5.18,0.3 6.32,2.78l123.93 4.56c46.52,-0.17 93.39,0.44 139.83,-1.27l1.79 -40.83c-35.1,-0.22 -76.05,4.29 -99.69,-7.85l0.66 -366.28 110.64 0c0,-49.87 10.5,-58.16 -41.4,-60.79l-206.64 0c-51.9,2.63 -41.4,10.92 -41.4,60.79l110.67 0 -1.08 366.28z"/>
   <path class="fil6" d="M7398.73 1846.31l0 34.07 136.21 0 0 400.35c0,37.41 76.62,37.41 76.62,0l0 -400.35c157.56,0 139.49,11.82 144.72,-51.11 -78.48,-18.29 -243.08,-8.51 -332.01,-8.51 -19.62,0 -25.54,5.92 -25.54,25.55z"/>
   <path class="fil8" d="M4980.97 1846.31l0 459.98 272.43 0 0 -59.63 -204.32 0 0 -400.35c0,-36.88 -68.11,-36.88 -68.11,0z"/>
   <path class="fil10" d="M5959.36 2246.66c23.64,12.14 64.59,7.63 99.69,7.85l-1.79 40.83c-46.44,1.71 -93.31,1.1 -139.83,1.27l-123.93 -4.56c-1.14,-2.48 -4.03,-1.85 -6.32,-2.78l-1.51 -25.57c41.19,-23.94 69.88,4.21 105.14,-17.04l-109.33 0 -0.26 59.63 289.44 0 0 -59.63 -111.3 0z"/>
   <path class="fil11" d="M6292.01 3498.77c27.24,-1.54 59.13,-5.67 85.23,-10.28 24.43,-4.31 35.37,-13.3 68.37,-13.06 2.81,58.21 7.12,85.56 -10.92,134.12l19.07 0 0 -153.32 -121.53 22.65c-47.43,8.94 -28.31,-8.57 -40.22,19.89z"/>
   <path class="fil12" d="M9348.25 2031.77c-40.54,-19.88 -133.61,-6.58 -187.29,-6.58l0 -145.43c-12.69,12.01 -9.73,-10.7 -13.71,34.06 -2.77,31.05 -1.52,92 10.54,117.77l190.46 0.18z"/>
   <path class="fil13" d="M3576.29 2032.34l-187.29 -7.15 0 -147.31c-11.89,10.11 -11.82,-12.88 -11.06,70.64 0.32,34.87 -5.89,50.79 8.03,80.75l190.32 3.07z"/>
   <path class="fil14" d="M5414.34 3490.3l9.32 14.78c20.5,-1.48 21.29,-1.2 31.89,-8.53 12.76,-8.84 8.35,-6.39 19.15,-23.29l-60.36 17.04z"/>
   <polygon class="fil15" points="6345.96,2042.23 6324.3,2042.23 6331.24,2062.11 "/>
  </g>
 </g>
</svg>
