<?xml version="1.0" encoding="UTF-8"?>
<!DOCTYPE svg PUBLIC "-//W3C//DTD SVG 1.1//EN" "http://www.w3.org/Graphics/SVG/1.1/DTD/svg11.dtd">
<!-- Creator: CorelDRAW 2019 (64 Bit) -->
<svg xmlns="http://www.w3.org/2000/svg" xml:space="preserve" width="37.0044mm" height="18.2356mm" version="1.1" style="shape-rendering:geometricPrecision; text-rendering:geometricPrecision; image-rendering:optimizeQuality; fill-rule:evenodd; clip-rule:evenodd"
viewBox="0 0 3700.44 1823.56"
 xmlns:xlink="http://www.w3.org/1999/xlink">
 <defs>
  <style type="text/css">
   <![CDATA[
    .fil1 {fill:#EE3537}
    .fil2 {fill:#363435}
    .fil3 {fill:#0F96D3}
    .fil0 {fill:#1494C9}
   ]]>
  </style>
 </defs>
 <g id="Camada_x0020_1">
  <metadata id="CorelCorpID_0Corel-Layer"/>
  <g id="_2240672079840">
   <path class="fil0" d="M2743.5 1823.55l28.3 0c7.72,-3.75 20.35,-4.28 29.45,-7.45 119.51,-41.55 110.14,-210.02 -13.25,-238.13 -47.13,-10.71 -92.56,5.84 -116.84,30.21 -12.45,5.27 -1685.1,3.12 -1959.38,3.12 -73.46,0 -136.25,-0.35 -205.37,-14.45 -124.87,-25.53 -216.22,-87.25 -267.81,-167.58 -64.97,-101.17 -64.35,-235.85 -2.05,-340.1 43.11,-72.07 98.27,-120.18 171.19,-155.88 27.4,-13.43 50.52,-19.72 79.34,-30.57 16.78,-169.18 -17.67,-228.67 75.47,-391.78 19.9,-34.81 42.26,-62.83 64.08,-92.15 5.85,-7.86 11.96,-13.3 17.99,-20.53 25.43,-30.66 68.59,-68.59 100.99,-91.98 81.22,-58.68 168.24,-94.69 275.3,-115.98 175.83,-34.94 364.96,1.16 516.56,83.5 126.69,68.81 247.09,200.5 280.03,342.86 17.72,-2.9 76.8,-20.17 107.24,-26.37 251.78,-51.28 416.5,-12.9 551.85,212.82l48.47 85.51c77.2,3.17 151.15,0.09 227.06,8.17 64.04,6.82 140.66,20.66 195.78,41.5 138.61,52.3 209.07,98.49 310.11,191.63l43.46 44.76c61.54,71.89 95.59,118.3 140.49,214.12 50.47,107.72 73.01,209.83 82.96,328.49 1.7,19.82 0.58,38.61 1.61,58.91l173.91 0.18c-2.59,-93.98 -4.15,-142.85 -23.34,-236.7 -24.86,-121.25 -89.08,-268.34 -154.81,-367.15 -108.22,-162.62 -235.14,-276.68 -418.25,-364.73 -107.9,-51.95 -236.38,-87.69 -359.51,-96.39 -20.75,-1.48 -44.49,0.44 -64.4,-1.97 -4.1,-5.62 -8.03,-16.42 -11.42,-23.03 -10.62,-20.52 -28.43,-46.63 -41.41,-65.24 -26.47,-37.93 -66.94,-81.71 -102.69,-112.37 -40.25,-34.5 -81.31,-60.2 -129.77,-85.28 -97.42,-50.43 -242.51,-79.17 -357.82,-64.26 -43.42,5.62 -83.81,14.81 -129.55,14.95 -5.76,-14.95 -25.4,-38.96 -34.72,-51.64 -20.44,-27.8 -78.06,-87.24 -107.24,-109.65 -8.53,-6.51 -16.11,-12.85 -24.46,-19.59 -225.63,-182.16 -527.44,-234.47 -818.1,-161.72 -123.52,30.88 -254.9,93.8 -347.19,172.84 -5.04,4.28 -6.65,5.66 -10.94,9.23 -4.37,3.57 -7.27,7.05 -11.46,10.58 -8.44,7.05 -14.64,13.88 -22.59,21.55 -14.45,14.02 -29.45,28.79 -43.15,45.03 -100.95,119.33 -164.99,258.7 -189.62,418.74 -4.06,26.37 -5.31,52.88 -9.42,78.63 -46.01,20.39 -109.6,68.95 -143.34,103.13 -174.98,177.44 -187.88,428.73 -60.15,638.12 53.55,87.82 103.75,129.02 190.29,180.92 62.83,37.71 115.62,49.76 189.66,58.5 74.44,8.75 156.42,13.52 232.06,15.53 327.29,8.84 652.84,9.33 981.39,6.43l740.67 -4.64c25.84,-0.09 241.78,-3.13 246.29,-1.07 8.3,8.03 20.26,17.36 32.98,23.87l45.07 14.55z"/>
   <path class="fil0" d="M2690 1035.13l-0.05 143.21c10.76,1.65 23.07,0.26 34.19,0.8 31.24,1.52 67.2,6.56 97.02,12.99 67.38,14.54 144.94,52.16 199.03,91.08 29.19,21.02 56.68,43.91 78.99,67.97 50.47,54.35 86.53,104.24 115.94,176.27 23.03,56.45 37.31,113.4 43.65,175.03 2.41,23.74 1.87,46.41 3.74,69.66 25.35,0.36 164.81,2.5 175.52,-1.16 4.91,-108.44 -23.38,-219.65 -62.07,-316.05 -43.34,-107.99 -106.62,-184.48 -173.65,-254.59 -14.01,-14.69 -59.89,-52.62 -78.01,-65.38 -37.21,-26.2 -74.25,-50.16 -120.26,-70.87 -45.39,-20.44 -90.86,-36.06 -142.41,-48.6 -34.67,-8.43 -138.97,-24.36 -171.63,-18.61l0 38.25z"/>
   <path class="fil0" d="M2689.33 1468.77l1.16 -25.66c31.86,-9.06 101.66,12.8 131.74,27.22 5.08,2.45 8.25,4.37 12.71,6.92l7.01 4.32c1.52,1.12 4.06,3.04 5.58,3.98 5.35,3.21 8.21,3.66 12.72,7.18l63.37 58.11c26.28,27.71 54.53,81.62 65.73,116.69 9.69,30.4 17.94,72.66 17.9,104.57l-24.95 -3.49c-0.13,-0.66 -0.18,-1.11 -0.31,-1.87l-1.87 -12 0.75 16.33c10.18,3.88 157.27,2.68 176.64,0.89 2.36,-57.97 -20.44,-153.96 -39.14,-201.04 -25.39,-64.04 -56.99,-104.3 -93.72,-146.96 -13.96,-16.24 -46.19,-43.96 -62.52,-56.99 -21.06,-16.87 -47.3,-33.42 -74.17,-47.08 -26.06,-13.21 -55.6,-24.19 -87.91,-31.28 -25.53,-5.62 -84.3,-15.49 -109.96,-10.18l-0.76 190.34z"/>
   <path class="fil1" d="M1809.11 1533.52l93.63 0.18 -0.09 -132.85c0,-14.82 0.53,-28.16 16.6,-28.34 24.19,-0.27 17.58,37.04 17.58,70.6 0,30.21 0.09,60.42 0,90.63l93.14 -0.04c-0.14,-47.04 4.95,-136.83 -5.85,-176.95 -11.6,-42.93 -50.47,-76.98 -104.87,-76.71 -53.33,0.22 -90.95,36.37 -104.3,76.98 -10.71,32.8 -5.53,134.37 -5.84,176.5z"/>
   <path class="fil1" d="M920.77 1533.52l93.18 0.22c0.27,-38.29 -1.52,-105.23 0.04,-140.21 0.81,-17.85 6.65,-22.58 25.57,-20.09 10.8,11.16 8.62,14.73 8.62,32.94l-0.05 127.14 93.59 0.18c0.31,-45.34 4.59,-138.83 -5.81,-176.68 -28.2,-102.64 -176,-102.33 -209.25,-0.36 -10.62,32.67 -5.8,135.05 -5.89,176.86z"/>
   <path class="fil1" d="M1562.77 1509.29l-51.5 -62.35c-5.62,2.19 -25.57,24.5 -47.8,5.32 -12.4,-10.72 -18.78,-30.98 -17,-53.33 4.69,-57.48 65.56,-56.5 68.01,-18.7l-45.96 0.4c-6.52,17.23 -5.22,25.75 -1.79,44.49l141.51 0.05c0.49,-42.04 -1.83,-61.1 -21.28,-90.82 -70.78,-108.04 -260.58,-45.25 -233.13,101.84 6.6,35.3 23.56,55.74 42.39,72.29 34.05,29.9 86.71,39.28 130.98,22.27 10.04,-3.88 28.65,-12.8 35.57,-21.46z"/>
   <path class="fil1" d="M2281.35 1509.29c-7.94,-13.35 -37.26,-42.58 -50.74,-62.88 -3.93,1.83 -28.03,25.03 -48.56,5.89 -12.85,-11.96 -18.38,-29.94 -16.91,-53.37 3.62,-56.81 65.07,-57.17 67.92,-18.57l-45.47 0.31c-6.87,10.98 -7.05,31.82 -1.83,43.78l141.06 0.72c2.41,-63.6 -21.37,-118.31 -85.14,-138.84 -73.15,-23.52 -130.27,17.36 -155.44,59.18 -45.65,75.95 3.57,191.27 110.54,193.37 26.69,0.53 45.74,-5.09 67.66,-17.05l13.21 -8.84c0.31,-0.22 0.75,-0.58 1.02,-0.8l1.83 -1.88c0.18,-0.22 0.54,-0.71 0.85,-1.02z"/>
   <path class="fil1" d="M1321.47 1536.69l-0.09 -96.71c-24.05,-5.04 -44.09,-0.89 -43.33,-51.94l41.73 -0.18 0.04 -98.4 -41.81 -0.23 -0.18 -95.23 -92.6 0.04c-1.88,10.27 -0.67,100.64 -0.67,118.58 0,78.59 -12.01,146.42 44.49,195.82 18.79,16.38 58.33,34.72 92.42,28.25z"/>
   <path class="fil1" d="M2490.87 1537.36l-0.13 -97.96c-37.44,-2.9 -41.68,-13.88 -43.11,-51.45l41.41 -0.05 0.09 -98.67 -41.5 0c0,-9.86 0.67,-91.04 -0.45,-93.13 -2.72,-5.27 -81.44,-2.06 -91.71,-2.1 -3.88,15.75 -2,214.61 1.12,236.21 9.37,65.07 60.29,110.41 134.28,107.15z"/>
   <path class="fil2" d="M1397.38 1115.64l68.24 0.31c0.58,-19.42 0.13,-39.36 0.13,-58.78 0,-16.33 -4.06,-41.9 6.92,-51.23l9.19 -0.4c9.95,9.73 5.71,36.37 5.71,51.63 0,19.42 -0.09,38.87 0.05,58.29l68.72 0.4c0.23,-19.37 0.05,-38.16 0.05,-56.86 0,-16.33 -4.24,-42.75 6.33,-52.92l9.2 -0.54c9.64,10.49 5.58,36.15 5.58,51.63 0,19.55 0.04,39.14 0,58.69l68.41 0.09c0.27,-26.29 0.09,-52.71 0.09,-78.99 0,-26.91 0.35,-49.27 -12.81,-68.59 -9.37,-13.7 -29.36,-25.98 -51.99,-27.23 -30.53,-1.65 -41.19,12.54 -58.91,22.94l-5.67 -4.24c-14.37,-11.96 -31.01,-19.28 -51.36,-18.74 -24.63,0.62 -44.85,14.46 -53.87,27.27 -16.11,22.93 -14.19,34.31 -14.19,66.76 0,26.46 -0.76,54.18 0.18,80.51z"/>
   <path class="fil1" d="M759.22 1533.61l101.08 0.04 0 -339.43 -100.01 -0.22c-3.03,12.14 -1.16,319.57 -1.07,339.61z"/>
   <path class="fil2" d="M1785.68 1118.4l0.62 -65.96c-8.65,1.16 -14.41,5.85 -25.97,1.92 -7.85,-2.68 -12.85,-8.07 -14.9,-16.11 -4.87,-19.28 12.8,-34.81 32.04,-30.48 21.06,4.78 18.7,30.79 18.7,43.87 0,21.2 -0.49,43.07 0.13,64.17l68.32 0.14c0.99,-26.2 0.45,-54.54 0.23,-80.82 -0.98,-97.2 -93.85,-108.18 -142.18,-82.61 -31.06,16.43 -61.14,58.91 -41.95,109.79 13.03,34.4 53.95,64.48 104.96,56.09z"/>
   <path class="fil2" d="M2442.94 1118.05c2.06,-3.26 1.03,4.01 2.1,-5.63l-0.09 -25.84c0,-11.24 -0.04,-22.49 0.05,-33.73 -4.87,0.66 -37.13,10.79 -41.46,-16.43 -2.95,-18.52 12.89,-32.44 31.95,-28.69 18.65,3.7 19.28,23.43 19.28,43.91 0,21.2 0.04,42.35 0,63.55l68.32 0.67c0.36,-27.27 0.05,-54.09 0.05,-80.73 0.09,-94.57 -89.61,-108.04 -139.86,-83.68 -60.03,29.14 -69.71,116.66 -7.1,154.28 14.42,8.66 46.46,19.54 66.76,12.32z"/>
   <path class="fil1" d="M1646.22 1533.74l93.18 0c0.09,-34.49 0,-68.99 0.05,-103.49 0.04,-66.76 20.17,-52.03 43.11,-48.15l0.09 -98.18c-26.83,-7.94 -59.22,-3.25 -80.69,8.08 -20.93,11.02 -36.64,28.03 -46.37,52.79 -15.26,38.87 -9.24,139.73 -9.37,188.95z"/>
   <path class="fil2" d="M1179.25 1038.79c-11.96,30.7 -62.48,14.9 -48.78,-18.79 11.65,-28.78 61.27,-13.16 48.78,18.79zm-41.15 -96.31c-46.28,8.13 -88.99,47.98 -77.43,103.98 9.24,44.9 54.85,81.18 111.12,71.99 80.02,-13.08 107.6,-111.66 40.97,-159.77 -19.81,-14.32 -44.8,-21.46 -74.66,-16.2z"/>
   <path class="fil2" d="M2314.69 1034.82l-66.45 2.05c-7.63,8.57 -7.86,19.01 -25.71,19.01 -30.66,0 -36.1,-41.55 -10.62,-49.8 17,-5.49 23.74,3.08 32.67,9.23l68.05 -1.91c-5.04,-63.73 -108.66,-103.41 -163.38,-42.36 -15.17,16.92 -24.5,34.81 -22.71,66.05 6.07,104.21 179,115.18 188.15,-2.27z"/>
   <path class="fil2" d="M741.55 1115.41l68.32 0.54c0.22,-22.63 0.09,-45.34 0.09,-67.97 0,-23.87 -6.16,-50.29 22,-40.97 6.03,17.32 2.9,83.86 2.9,108.63l68.64 0.31c0.89,-28.83 2.85,-99.83 -4.38,-123.04 -9.68,-30.97 -37.44,-52.03 -77.07,-51.94 -38.42,0.09 -65.78,23.6 -75.77,51.41 -8.53,23.6 -4.69,93.13 -4.73,123.03z"/>
   <path class="fil2" d="M1995.65 1118.71l0.94 -68.14c-24.15,-1.96 -33.52,-8.84 -31.15,-35.12l29.41 -0.27 0.22 -68.41 -29.59 -0.27 -0.8 -64.89 -67.57 -0.44c-2.76,21.28 -2.36,148.47 1.56,167.66 8.75,43.02 45.35,71.31 96.98,69.88z"/>
   <path class="fil2" d="M942.68 1115.95l68.19 -0.09 0 -65.2 29.01 -0.09c3.03,-8.66 2.27,-57.57 0.76,-68.37l-29.46 -0.18c-0.98,-24.14 6.96,-35.52 30.17,-36.19l-0.09 -67.43c-49.54,-3.17 -88.9,30.61 -97.06,71.54 -3.22,16.33 -1.97,140.79 -1.52,166.01z"/>
   <polygon class="fil2" points="623.73,1115.72 697.77,1115.95 697.81,881.21 624.13,881.21 "/>
   <path class="fil3" d="M2689.33 1468.77c56.27,3.17 73.5,6.33 118.97,26.33 31.78,14.01 63.19,40.92 82.47,60.91 42.76,44.27 83.72,112.77 89.35,198.73l1.87 12c0.13,0.76 0.18,1.21 0.31,1.87l24.95 3.49c0.04,-31.91 -8.21,-74.17 -17.9,-104.57 -11.2,-35.07 -39.45,-88.98 -65.73,-116.69l-63.37 -58.11c-4.51,-3.52 -7.37,-3.97 -12.72,-7.18 -1.52,-0.94 -4.06,-2.86 -5.58,-3.98l-7.01 -4.32c-4.46,-2.55 -7.63,-4.47 -12.71,-6.92 -30.08,-14.42 -99.88,-36.28 -131.74,-27.22l-1.16 25.66z"/>
   <path class="fil2" d="M1278.14 1115.72l68.41 0.23 0.54 -87.52c2.68,-27.35 19.05,-18.11 30.88,-17.76l0.09 -66.8c-18.3,-6.56 -42.58,-2.95 -58.28,4.59 -15.67,7.5 -27.09,18.57 -34.5,35.39 -11.43,26.02 -8.12,98.23 -7.14,131.87z"/>
   <path class="fil2" d="M2027.96 1115.68l68.86 0.18 -0.05 -171.19 -67.83 -0.31c-4.24,16.24 -1.43,145.08 -0.98,171.32z"/>
   <path class="fil2" d="M725.3 1529.86l0.4 -33.11c-17.8,-0.05 -35.16,-0.05 -52.52,-0.09 -20.08,-0.05 -35.66,4.73 -34.81,-17.49 4.02,-8.97 26.95,-13.66 22,13.2l34.54 0.18c5.04,-27.26 -13.61,-48.46 -34.81,-52.66 -58.41,-11.6 -76.62,73.1 -22.04,87.78 16.11,4.33 67.56,2.24 87.24,2.19z"/>
   <path class="fil2" d="M695 1375.5l-32.67 -0.09c3.13,21.6 -8.21,24.54 -22.4,13.43l0.18 -11.87c12.09,-10.89 35.66,-2.95 54.22,-6.34l0.18 -31.59c-20.53,-3.84 -58.46,-2.15 -71.85,7.58 -14.28,10.4 -24.05,36.46 -12.09,58.06 25.57,46.06 95.63,19.95 84.43,-29.18z"/>
   <path class="fil2" d="M695.94 1216.27l-33.38 -1.21c5.08,27 -18.84,21.11 -21.96,13.03l-0.4 -10.97c11.33,-10.8 35.12,-4.33 54.18,-6.47l0.22 -32.72c-23.34,-1.11 -55.25,-3.16 -71.14,7.81 -15.08,10.45 -24.18,36.11 -12.45,58.6 22.05,42.17 91.58,26.15 84.93,-28.07z"/>
   <path class="fil2" d="M2055.4 869.21c-42.35,9.68 -33.02,67.03 14.28,60.6 43.47,-5.94 30.66,-70.82 -14.28,-60.6z"/>
   <path class="fil2" d="M694.6 1319.54l-0.18 -31.6c-35.79,-1.61 -56.81,6.2 -53.33,-14.95 -6.56,-0.54 -12.81,-0.31 -19.37,-0.4 -8.88,-0.09 -14.81,-2.68 -15.88,5.13 -1.92,14.37 4.1,25.26 11.33,32.13 9.33,8.84 18.52,10.18 33.96,10.4 11.78,0.18 32.76,1.34 43.47,-0.71z"/>
   <path class="fil2" d="M1748.33 927.89c49.22,0.04 32.44,1.87 53.46,-15.75 8.88,-7.46 17.32,-15 25.3,-23.79 -55.47,-2.99 -37.53,-1.61 -60.15,18.34 -7.1,6.29 -16.6,13.26 -18.61,21.2z"/>
  </g>
 </g>
</svg>
